<svg width="16" height="15" viewBox="0 0 16 15" fill="none" xmlns="http://www.w3.org/2000/svg">
<path d="M5.80563 11.0795H11.9722M5.80563 11.0795V13.125H11.9722V11.0795M5.80563 11.0795C3.7501 9.71591 2.72233 6.30682 3.06492 5.28409C3.33899 4.46591 4.54947 4.71591 5.12045 4.94318C5.12045 2.55682 6.14822 1.875 8.88893 1.875C11.6296 1.875 13 2.55682 13 5.96591C13 8.69318 12.3148 10.5114 11.9722 11.0795" stroke="#3E86F5" stroke-linecap="round" stroke-linejoin="round"/>
<path d="M5.12012 4.94324C5.34851 5.17051 6.01085 5.62506 6.83306 5.62506C7.65528 5.62506 9.23118 5.62506 9.91636 5.62506" stroke="#3E86F5" stroke-linecap="round" stroke-linejoin="round"/>
<path d="M5.12012 4.94324C5.12012 7.3296 6.14788 7.67051 6.83306 7.67051" stroke="#3E86F5" stroke-linecap="round" stroke-linejoin="round"/>
</svg>
