<svg width="24" height="24" viewBox="0 0 24 24" fill="none" xmlns="http://www.w3.org/2000/svg">
<path d="M0 6C0 2.68629 2.68629 0 6 0H18C21.3137 0 24 2.68629 24 6V18C24 21.3137 21.3137 24 18 24H6C2.68629 24 0 21.3137 0 18V6Z" fill="white"/>
<path d="M8.25008 12.5L7.66537 9.86897C7.39457 8.65046 8.6437 7.65359 9.77177 8.18795L16.0132 11.1444C17.157 11.6862 17.157 13.3138 16.0132 13.8556L9.77177 16.8121C8.6437 17.3464 7.39457 16.3495 7.66537 15.131L8.25008 12.5ZM8.25008 12.5H12" stroke="#3E86F5" stroke-linecap="round" stroke-linejoin="round"/>
</svg>
