<svg width="24" height="24" viewBox="0 0 24 24" fill="none" xmlns="http://www.w3.org/2000/svg">
<path d="M14.5098 4H4.35758C3.88609 4 3.4339 4.1873 3.1005 4.5207C2.7671 4.8541 2.5798 5.30628 2.5798 5.77778V18.2222C2.5798 18.6937 2.7671 19.1459 3.1005 19.4793C3.4339 19.8127 3.88609 20 4.35758 20H16.802C17.2735 20 17.7257 19.8127 18.0591 19.4793C18.3925 19.1459 18.5798 18.6937 18.5798 18.2222V15" stroke="#252525" stroke-linecap="round" stroke-linejoin="round"/>
<path d="M18.6845 4.60043C19.0507 4.23419 19.5474 4.02844 20.0654 4.02844C20.5833 4.02844 21.08 4.23419 21.4462 4.60043C21.8125 4.96666 22.0182 5.46338 22.0182 5.98132C22.0182 6.49925 21.8125 6.99597 21.4462 7.36221L13.7714 15.1102L10.0891 16.0308L11.0096 12.3484L18.6845 4.60043Z" stroke="#252525" stroke-linecap="round" stroke-linejoin="round"/>
<path d="M5.5798 8H11.0798" stroke="#252525" stroke-linecap="round"/>
<path d="M5.5798 12.0154L8.0798 12.0154" stroke="#252525" stroke-linecap="round"/>
<path d="M5.5798 16.0308H6.5798" stroke="#252525" stroke-linecap="round"/>
</svg>
