<svg width="113" height="62" viewBox="0 0 113 62" fill="none" xmlns="http://www.w3.org/2000/svg">
<path d="M0.248 61.5V14.678C0.248 11.9993 0.658 9.758 1.478 7.954C2.298 6.15 3.39133 4.72866 4.758 3.69C6.12467 2.65133 7.628 1.91333 9.268 1.476C10.908 1.03866 12.5207 0.819999 14.106 0.819999C16.074 0.819999 18.5067 0.847332 21.404 0.901998C24.356 0.901998 27.472 0.983997 30.752 1.14799C34.0867 1.312 37.2847 1.558 40.346 1.886V12.054H17.468C15.7733 12.054 14.4887 12.5187 13.614 13.448C12.794 14.3227 12.384 15.498 12.384 16.974V27.306L36.41 27.962V37.556L12.384 38.212V61.5H0.248ZM48.0546 61.5V0.819999H60.1906V61.5H48.0546ZM83.4268 61.5V11.726H66.7808V0.819999H112.291V11.726H95.5628V61.5H83.4268Z" fill="#3E86F5"/>
</svg>
