<svg width="24" height="24" viewBox="0 0 24 24" fill="none" xmlns="http://www.w3.org/2000/svg">
<path d="M8.38849 8.51136C8.86577 8.51136 9.29948 8.57955 9.68963 8.71591C10.0836 8.85227 10.4358 9.02651 10.7464 9.23864C11.0571 9.44697 11.3298 9.66098 11.5646 9.88068C11.6518 9.96401 11.7275 10.0398 11.7919 10.108C11.8601 10.1761 11.9283 10.25 11.9964 10.3295C12.0608 10.25 12.1252 10.1761 12.1896 10.108C12.2578 10.036 12.3336 9.96023 12.4169 9.88068C12.7768 9.54356 13.2237 9.23106 13.7578 8.94318C14.2957 8.6553 14.9112 8.51136 15.6044 8.51136C16.2711 8.51136 16.8771 8.67235 17.4226 8.99432C17.9718 9.3125 18.4093 9.74053 18.7351 10.2784C19.0608 10.8125 19.2237 11.4015 19.2237 12.0455C19.2237 12.5341 19.129 12.9924 18.9396 13.4205C18.754 13.8447 18.4946 14.2197 18.1612 14.5455C17.8317 14.8674 17.4472 15.1212 17.0078 15.3068C16.5722 15.4886 16.1044 15.5795 15.6044 15.5795C15.1347 15.5795 14.7048 15.5133 14.3146 15.3807C13.9245 15.2481 13.5741 15.0814 13.2635 14.8807C12.9529 14.6761 12.6802 14.4678 12.4453 14.2557C12.343 14.161 12.2578 14.0795 12.1896 14.0114C12.1252 13.9394 12.0608 13.8636 11.9964 13.7841C11.9207 13.8712 11.8487 13.9489 11.7805 14.017C11.7161 14.0852 11.6404 14.1648 11.5533 14.2557C11.326 14.4602 11.0571 14.6648 10.7464 14.8693C10.4358 15.0701 10.0836 15.2386 9.68963 15.375C9.29948 15.5114 8.86577 15.5795 8.38849 15.5795C7.72183 15.5795 7.11577 15.4205 6.57031 15.1023C6.02486 14.7841 5.58925 14.358 5.26349 13.8239C4.93774 13.2898 4.77486 12.697 4.77486 12.0455C4.77486 11.5606 4.86766 11.1061 5.05327 10.6818C5.24266 10.2538 5.50213 9.87689 5.83168 9.55114C6.16501 9.22538 6.54948 8.97159 6.98509 8.78977C7.42448 8.60417 7.89228 8.51136 8.38849 8.51136ZM6.89986 12.0455C6.89986 12.3106 6.96615 12.5511 7.09872 12.767C7.23509 12.9792 7.41501 13.1496 7.63849 13.2784C7.86577 13.4034 8.11577 13.4659 8.38849 13.4659C8.71425 13.4659 9.01349 13.3977 9.28622 13.2614C9.56274 13.125 9.82789 12.9432 10.0817 12.7159C10.2256 12.5833 10.3449 12.4602 10.4396 12.3466C10.5343 12.233 10.612 12.1326 10.6726 12.0455C10.6044 11.9583 10.5078 11.8485 10.3828 11.7159C10.2616 11.5795 10.1612 11.4735 10.0817 11.3977C9.8544 11.1818 9.59683 11 9.30895 10.8523C9.02107 10.7008 8.71425 10.625 8.38849 10.625C8.11577 10.625 7.86577 10.6913 7.63849 10.8239C7.41501 10.9527 7.23509 11.125 7.09872 11.3409C6.96615 11.553 6.89986 11.7879 6.89986 12.0455ZM17.0817 12.0455C17.0817 11.7879 17.0154 11.553 16.8828 11.3409C16.754 11.125 16.5779 10.9527 16.3544 10.8239C16.1309 10.6913 15.8809 10.625 15.6044 10.625C15.3847 10.625 15.1726 10.661 14.968 10.733C14.7635 10.8011 14.5722 10.8958 14.3942 11.017C14.2199 11.1345 14.0608 11.2614 13.9169 11.3977C13.8146 11.4962 13.7048 11.6117 13.5874 11.7443C13.4699 11.8769 13.3828 11.9773 13.326 12.0455C13.398 12.1515 13.4813 12.2595 13.576 12.3693C13.6707 12.4754 13.7843 12.5909 13.9169 12.7159C14.1555 12.9356 14.4131 13.1155 14.6896 13.2557C14.9699 13.3958 15.2749 13.4659 15.6044 13.4659C15.8809 13.4659 16.1309 13.4034 16.3544 13.2784C16.5779 13.1496 16.754 12.9792 16.8828 12.767C17.0154 12.5511 17.0817 12.3106 17.0817 12.0455Z" fill="#252525"/>
</svg>
