<svg width="16" height="15" viewBox="0 0 16 15" fill="none" xmlns="http://www.w3.org/2000/svg">
<g clip-path="url(#clip0_1948_3112)">
<path d="M8 9.37475C9.03553 9.37475 9.87499 8.53529 9.87499 7.49975C9.87499 6.46422 9.03553 5.62476 8 5.62476C6.96446 5.62476 6.125 6.46422 6.125 7.49975C6.125 8.53529 6.96446 9.37475 8 9.37475Z" stroke="#3E86F5" stroke-miterlimit="1.5" stroke-linecap="round" stroke-linejoin="round"/>
<path d="M8.625 5.625C8.625 5.625 9.25 4.375 9.25 3.125C9.25 1.875 8 0.625 8 0.625C8 0.625 6.75 1.875 6.75 3.125C6.75 4.375 7.375 5.625 7.375 5.625" stroke="#3E86F5" stroke-miterlimit="1.5" stroke-linecap="round" stroke-linejoin="round"/>
<path d="M6.125 6.875C6.125 6.875 4.875 6.25 3.625 6.25C2.375 6.25 1.125 7.5 1.125 7.5C1.125 7.5 2.375 8.75 3.625 8.75C4.875 8.75 6.125 8.125 6.125 8.125" stroke="#3E86F5" stroke-miterlimit="1.5" stroke-linecap="round" stroke-linejoin="round"/>
<path d="M8.625 9.375C8.625 9.375 9.25 10.625 9.25 11.875C9.25 13.125 8 14.375 8 14.375C8 14.375 6.75 13.125 6.75 11.875C6.75 10.625 7.375 9.375 7.375 9.375" stroke="#3E86F5" stroke-miterlimit="1.5" stroke-linecap="round" stroke-linejoin="round"/>
<path d="M9.875 6.875C9.875 6.875 11.125 6.25 12.375 6.25C13.625 6.25 14.875 7.5 14.875 7.5C14.875 7.5 13.625 8.75 12.375 8.75C11.125 8.75 9.875 8.125 9.875 8.125" stroke="#3E86F5" stroke-miterlimit="1.5" stroke-linecap="round" stroke-linejoin="round"/>
<path d="M7.11624 5.73241C7.11624 5.73241 6.6743 4.40659 5.79042 3.52271C4.90653 2.63882 3.13877 2.63882 3.13877 2.63882C3.13877 2.63882 3.13877 4.40659 4.02265 5.29047C4.90653 6.17436 6.23236 6.6163 6.23236 6.6163" stroke="#3E86F5" stroke-miterlimit="1.5" stroke-linecap="round" stroke-linejoin="round"/>
<path d="M6.23217 8.38388C6.23217 8.38388 4.90634 8.82582 4.02246 9.70971C3.13858 10.5936 3.13858 12.3614 3.13858 12.3614C3.13858 12.3614 4.90634 12.3614 5.79023 11.4775C6.67411 10.5936 7.11605 9.26776 7.11605 9.26776" stroke="#3E86F5" stroke-miterlimit="1.5" stroke-linecap="round" stroke-linejoin="round"/>
<path d="M9.76783 8.38388C9.76783 8.38388 11.0937 8.82582 11.9775 9.70971C12.8614 10.5936 12.8614 12.3614 12.8614 12.3614C12.8614 12.3614 11.0937 12.3614 10.2098 11.4775C9.32589 10.5936 8.88395 9.26776 8.88395 9.26776" stroke="#3E86F5" stroke-miterlimit="1.5" stroke-linecap="round" stroke-linejoin="round"/>
<path d="M8.88376 5.73241C8.88376 5.73241 9.3257 4.40659 10.2096 3.52271C11.0935 2.63882 12.8612 2.63882 12.8612 2.63882C12.8612 2.63882 12.8612 4.40659 11.9774 5.29047C11.0935 6.17436 9.76764 6.6163 9.76764 6.6163" stroke="#3E86F5" stroke-miterlimit="1.5" stroke-linecap="round" stroke-linejoin="round"/>
</g>
<defs>
<clipPath id="clip0_1948_3112">
<rect x="0.5" width="15" height="15" rx="4" fill="white"/>
</clipPath>
</defs>
</svg>
