<svg width="117" height="62" viewBox="0 0 117 62" fill="none" xmlns="http://www.w3.org/2000/svg">
<mask id="path-1-outside-1_1198_3716" maskUnits="userSpaceOnUse" x="-1" y="-0.5" width="119" height="63" fill="black">
<rect fill="white" x="-1" y="-0.5" width="119" height="63"/>
<path d="M0.608 61.5L7.66 0.819999H19.304L33.244 47.314L47.102 0.819999H58.664L65.798 61.5H54.072L48.824 16.81L50.71 16.974L38.82 61.5H27.422L15.368 16.974L17.418 16.892L12.334 61.5H0.608ZM85.7874 61.5V43.132L67.5014 0.819999H80.1294L92.1014 30.75L103.991 0.819999H116.127L97.9234 43.132V61.5H85.7874Z"/>
</mask>
<path d="M0.608 61.5L-0.385314 61.3846L-0.514946 62.5H0.608V61.5ZM7.66 0.819999V-0.180001H6.76949L6.66669 0.70456L7.66 0.819999ZM19.304 0.819999L20.2619 0.532806L20.0482 -0.180001H19.304V0.819999ZM33.244 47.314L32.2861 47.6012L33.2468 50.8054L34.2023 47.5996L33.244 47.314ZM47.102 0.819999V-0.180001H46.3566L46.1437 0.534358L47.102 0.819999ZM58.664 0.819999L59.6572 0.703236L59.5533 -0.180001H58.664V0.819999ZM65.798 61.5V62.5H66.9225L66.7912 61.3832L65.798 61.5ZM54.072 61.5L53.0788 61.6166L53.1826 62.5H54.072V61.5ZM48.824 16.81L48.9106 15.8138L47.6877 15.7074L47.8308 16.9266L48.824 16.81ZM50.71 16.974L51.6761 17.232L51.9835 16.081L50.7966 15.9778L50.71 16.974ZM38.82 61.5V62.5H39.588L39.7862 61.758L38.82 61.5ZM27.422 61.5L26.4567 61.7613L26.6567 62.5H27.422V61.5ZM15.368 16.974L15.328 15.9748L14.0751 16.0249L14.4027 17.2353L15.368 16.974ZM17.418 16.892L18.4116 17.0052L18.5437 15.8462L17.378 15.8928L17.418 16.892ZM12.334 61.5V62.5H13.2265L13.3276 61.6132L12.334 61.5ZM1.60132 61.6154L8.65332 0.935438L6.66669 0.70456L-0.385314 61.3846L1.60132 61.6154ZM7.66 1.82H19.304V-0.180001H7.66V1.82ZM18.3461 1.10719L32.2861 47.6012L34.2019 47.0268L20.2619 0.532806L18.3461 1.10719ZM34.2023 47.5996L48.0603 1.10564L46.1437 0.534358L32.2857 47.0284L34.2023 47.5996ZM47.102 1.82H58.664V-0.180001H47.102V1.82ZM57.6708 0.936763L64.8048 61.6168L66.7912 61.3832L59.6572 0.703236L57.6708 0.936763ZM65.798 60.5H54.072V62.5H65.798V60.5ZM55.0652 61.3834L49.8172 16.6934L47.8308 16.9266L53.0788 61.6166L55.0652 61.3834ZM48.7374 17.8062L50.6234 17.9702L50.7966 15.9778L48.9106 15.8138L48.7374 17.8062ZM49.7439 16.716L37.8539 61.242L39.7862 61.758L51.6761 17.232L49.7439 16.716ZM38.82 60.5H27.422V62.5H38.82V60.5ZM28.3873 61.2387L16.3333 16.7127L14.4027 17.2353L26.4567 61.7613L28.3873 61.2387ZM15.408 17.9732L17.458 17.8912L17.378 15.8928L15.328 15.9748L15.408 17.9732ZM16.4244 16.7788L11.3404 61.3868L13.3276 61.6132L18.4116 17.0052L16.4244 16.7788ZM12.334 60.5H0.608V62.5H12.334V60.5ZM85.7874 61.5H84.7874V62.5H85.7874V61.5ZM85.7874 43.132H86.7874V42.9252L86.7054 42.7353L85.7874 43.132ZM67.5014 0.819999V-0.180001H65.9799L66.5835 1.21671L67.5014 0.819999ZM80.1294 0.819999L81.0579 0.448609L80.8065 -0.180001H80.1294V0.819999ZM92.1014 30.75L91.1729 31.1214L92.1046 33.4506L93.0308 31.1192L92.1014 30.75ZM103.991 0.819999V-0.180001H103.313L103.062 0.450805L103.991 0.819999ZM116.127 0.819999L117.046 1.21521L117.646 -0.180001H116.127V0.819999ZM97.9234 43.132L97.0048 42.7368L96.9234 42.926V43.132H97.9234ZM97.9234 61.5V62.5H98.9234V61.5H97.9234ZM86.7874 61.5V43.132H84.7874V61.5H86.7874ZM86.7054 42.7353L68.4194 0.423291L66.5835 1.21671L84.8695 43.5287L86.7054 42.7353ZM67.5014 1.82H80.1294V-0.180001H67.5014V1.82ZM79.2009 1.19139L91.1729 31.1214L93.0299 30.3786L81.0579 0.448609L79.2009 1.19139ZM93.0308 31.1192L104.921 1.18919L103.062 0.450805L91.1721 30.3808L93.0308 31.1192ZM103.991 1.82H116.127V-0.180001H103.991V1.82ZM115.209 0.424791L97.0048 42.7368L98.842 43.5272L117.046 1.21521L115.209 0.424791ZM96.9234 43.132V61.5H98.9234V43.132H96.9234ZM97.9234 60.5H85.7874V62.5H97.9234V60.5Z" fill="#77AAF9" mask="url(#path-1-outside-1_1198_3716)"/>
</svg>
