<svg width="239" height="67" viewBox="0 0 239 67" fill="none" xmlns="http://www.w3.org/2000/svg">
<mask id="path-1-outside-1_1198_3385" maskUnits="userSpaceOnUse" x="2" y="-0.5" width="116" height="62" fill="black">
<rect fill="white" x="2" y="-0.5" width="116" height="62"/>
<path d="M3.52 60.5L10.4 1.3H21.76L35.36 46.66L48.88 1.3H60.16L67.12 60.5H55.68L50.56 16.9L52.4 17.06L40.8 60.5H29.68L17.92 17.06L19.92 16.98L14.96 60.5H3.52ZM86.6219 60.5V42.58L68.7819 1.3H81.1019L92.7819 30.5L104.382 1.3H116.222L98.4619 42.58V60.5H86.6219Z"/>
</mask>
<path d="M3.52 60.5L2.52669 60.3846L2.39705 61.5H3.52V60.5ZM10.4 1.3V0.299999H9.50949L9.40669 1.18456L10.4 1.3ZM21.76 1.3L22.7179 1.01281L22.5042 0.299999H21.76V1.3ZM35.36 46.66L34.4021 46.9472L35.3628 50.1514L36.3183 46.9456L35.36 46.66ZM48.88 1.3V0.299999H48.1346L47.9217 1.01436L48.88 1.3ZM60.16 1.3L61.1532 1.18324L61.0493 0.299999H60.16V1.3ZM67.12 60.5V61.5H68.2445L68.1132 60.3832L67.12 60.5ZM55.68 60.5L54.6868 60.6166L54.7906 61.5H55.68V60.5ZM50.56 16.9L50.6466 15.9038L49.4237 15.7974L49.5668 17.0166L50.56 16.9ZM52.4 17.06L53.3661 17.318L53.6735 16.167L52.4866 16.0638L52.4 17.06ZM40.8 60.5V61.5H41.568L41.7662 60.758L40.8 60.5ZM29.68 60.5L28.7147 60.7613L28.9147 61.5H29.68V60.5ZM17.92 17.06L17.88 16.0608L16.6271 16.1109L16.9547 17.3213L17.92 17.06ZM19.92 16.98L20.9136 17.0932L21.0457 15.9342L19.88 15.9808L19.92 16.98ZM14.96 60.5V61.5H15.8525L15.9536 60.6132L14.96 60.5ZM4.51331 60.6154L11.3933 1.41544L9.40669 1.18456L2.52669 60.3846L4.51331 60.6154ZM10.4 2.3H21.76V0.299999H10.4V2.3ZM20.8021 1.58719L34.4021 46.9472L36.3179 46.3728L22.7179 1.01281L20.8021 1.58719ZM36.3183 46.9456L49.8383 1.58564L47.9217 1.01436L34.4017 46.3744L36.3183 46.9456ZM48.88 2.3H60.16V0.299999H48.88V2.3ZM59.1668 1.41676L66.1268 60.6168L68.1132 60.3832L61.1532 1.18324L59.1668 1.41676ZM67.12 59.5H55.68V61.5H67.12V59.5ZM56.6732 60.3834L51.5532 16.7834L49.5668 17.0166L54.6868 60.6166L56.6732 60.3834ZM50.4734 17.8962L52.3134 18.0562L52.4866 16.0638L50.6466 15.9038L50.4734 17.8962ZM51.4339 16.802L39.8339 60.242L41.7662 60.758L53.3661 17.318L51.4339 16.802ZM40.8 59.5H29.68V61.5H40.8V59.5ZM30.6453 60.2387L18.8853 16.7987L16.9547 17.3213L28.7147 60.7613L30.6453 60.2387ZM17.96 18.0592L19.96 17.9792L19.88 15.9808L17.88 16.0608L17.96 18.0592ZM18.9264 16.8668L13.9664 60.3868L15.9536 60.6132L20.9136 17.0932L18.9264 16.8668ZM14.96 59.5H3.52V61.5H14.96V59.5ZM86.6219 60.5H85.6219V61.5H86.6219V60.5ZM86.6219 42.58H87.6219V42.3732L87.5398 42.1833L86.6219 42.58ZM68.7819 1.3V0.299999H67.2603L67.8639 1.69671L68.7819 1.3ZM81.1019 1.3L82.0303 0.928609L81.7789 0.299999H81.1019V1.3ZM92.7819 30.5L91.8534 30.8714L92.7851 33.2006L93.7112 30.8692L92.7819 30.5ZM104.382 1.3V0.299999H103.703L103.453 0.930805L104.382 1.3ZM116.222 1.3L117.14 1.69521L117.741 0.299999H116.222V1.3ZM98.4619 42.58L97.5433 42.1848L97.4619 42.374V42.58H98.4619ZM98.4619 60.5V61.5H99.4619V60.5H98.4619ZM87.6219 60.5V42.58H85.6219V60.5H87.6219ZM87.5398 42.1833L69.6998 0.903291L67.8639 1.69671L85.7039 42.9767L87.5398 42.1833ZM68.7819 2.3H81.1019V0.299999H68.7819V2.3ZM80.1734 1.67139L91.8534 30.8714L93.7104 30.1286L82.0303 0.928609L80.1734 1.67139ZM93.7112 30.8692L105.311 1.66919L103.453 0.930805L91.8525 30.1308L93.7112 30.8692ZM104.382 2.3H116.222V0.299999H104.382V2.3ZM115.303 0.904791L97.5433 42.1848L99.3805 42.9752L117.14 1.69521L115.303 0.904791ZM97.4619 42.58V60.5H99.4619V42.58H97.4619ZM98.4619 59.5H86.6219V61.5H98.4619V59.5Z" fill="#77AAF9" mask="url(#path-1-outside-1_1198_3385)"/>
<path d="M128.12 60.5V14.82C128.12 12.2067 128.52 10.02 129.32 8.26C130.12 6.5 131.187 5.11333 132.52 4.1C133.853 3.08666 135.32 2.36666 136.92 1.94C138.52 1.51333 140.093 1.3 141.64 1.3C143.56 1.3 145.933 1.32667 148.76 1.38C151.64 1.38 154.68 1.46 157.88 1.62C161.133 1.78 164.253 2.02 167.24 2.34V12.26H144.92C143.267 12.26 142.013 12.7133 141.16 13.62C140.36 14.4733 139.96 15.62 139.96 17.06V27.14L163.4 27.78V37.14L139.96 37.78V60.5H128.12ZM174.761 60.5V1.3H186.601V60.5H174.761ZM209.27 60.5V11.94H193.03V1.3H237.43V11.94H221.11V60.5H209.27Z" fill="#3E86F5"/>
</svg>
