<svg width="24" height="24" viewBox="0 0 24 24" fill="none" xmlns="http://www.w3.org/2000/svg">
<path d="M14.5098 4H4.35761C3.88612 4 3.43393 4.1873 3.10053 4.5207C2.76713 4.8541 2.57983 5.30628 2.57983 5.77778V18.2222C2.57983 18.6937 2.76713 19.1459 3.10053 19.4793C3.43393 19.8127 3.88612 20 4.35761 20H16.8021C17.2736 20 17.7257 19.8127 18.0591 19.4793C18.3925 19.1459 18.5798 18.6937 18.5798 18.2222V15" stroke="#252525" stroke-width="1.5" stroke-linecap="round" stroke-linejoin="round"/>
<path d="M18.6845 4.6003C19.0508 4.23407 19.5475 4.02832 20.0654 4.02832C20.5834 4.02832 21.0801 4.23407 21.4463 4.6003C21.8125 4.96654 22.0183 5.46326 22.0183 5.98119C22.0183 6.49913 21.8125 6.99585 21.4463 7.36209L13.7715 15.1101L10.0891 16.0307L11.0097 12.3483L18.6845 4.6003Z" stroke="#252525" stroke-width="1.5" stroke-linecap="round" stroke-linejoin="round"/>
<path d="M5.57983 8H11.0798" stroke="#252525" stroke-width="1.5" stroke-linecap="round"/>
<path d="M5.57983 12.0154L8.07983 12.0154" stroke="#252525" stroke-width="1.5" stroke-linecap="round"/>
<path d="M5.57983 16.0308H6.57983" stroke="#252525" stroke-width="1.5" stroke-linecap="round"/>
</svg>
