<svg width="24" height="24" viewBox="0 0 24 24" fill="none" xmlns="http://www.w3.org/2000/svg">
<path d="M0 6C0 2.68629 2.68629 0 6 0H18C21.3137 0 24 2.68629 24 6V18C24 21.3137 21.3137 24 18 24H6C2.68629 24 0 21.3137 0 18V6Z" fill="white"/>
<path d="M15.75 10.25C15.75 9.18913 15.3549 8.17172 14.6516 7.42158C13.9484 6.67143 12.9946 6.25 12 6.25C11.0054 6.25 10.0516 6.67143 9.34835 7.42158C8.64509 8.17172 8.25 9.18913 8.25 10.25C8.25 14.9167 6.375 16.25 6.375 16.25H17.625C17.625 16.25 15.75 14.9167 15.75 10.25Z" stroke="#3E86F5" stroke-linecap="round" stroke-linejoin="round"/>
<path d="M13.0814 18.125C12.9716 18.3144 12.8139 18.4717 12.6241 18.5809C12.4343 18.6902 12.2192 18.7478 12.0002 18.7478C11.7812 18.7478 11.5661 18.6902 11.3763 18.5809C11.1866 18.4717 11.0288 18.3144 10.9189 18.125" stroke="#3E86F5" stroke-linecap="round" stroke-linejoin="round"/>
</svg>
