<svg width="20" height="20" viewBox="0 0 20 20" fill="none" xmlns="http://www.w3.org/2000/svg">
<path d="M10.0001 17.0909C13.9163 17.0909 17.091 13.9162 17.091 9.99997C17.091 6.08377 13.9163 2.90906 10.0001 2.90906C6.08389 2.90906 2.90918 6.08377 2.90918 9.99997C2.90918 13.9162 6.08389 17.0909 10.0001 17.0909Z" stroke="#252525" stroke-linecap="round" stroke-linejoin="round"/>
<path d="M10.7886 12.7575C10.7886 13.1926 10.4359 13.5454 10.0008 13.5454C9.56564 13.5454 9.21289 13.1926 9.21289 12.7575C9.21289 12.3223 9.56564 11.9696 10.0008 11.9696C10.4359 11.9696 10.7886 12.3223 10.7886 12.7575Z" fill="#252525"/>
<path d="M8.88577 6.93845C9.19275 6.63147 9.59488 6.47763 9.99722 6.47692C10.4014 6.47621 10.8058 6.63005 11.1142 6.93845C11.4219 7.24613 11.5758 7.64941 11.5758 8.05268C11.5758 8.45595 11.4219 8.85922 11.1142 9.16691C10.8058 9.4753 10.4014 9.62914 9.99722 9.62843L10 10.4163" stroke="#252525" stroke-linecap="round" stroke-linejoin="round"/>
</svg>
