<svg width="24" height="24" viewBox="0 0 24 24" fill="none" xmlns="http://www.w3.org/2000/svg">
<path d="M6.46307 18.1591C5.61458 18.1591 4.8589 18.0133 4.19602 17.7216C3.53693 17.4261 3.0161 17.0208 2.63352 16.5057C2.25473 15.9867 2.05966 15.3883 2.0483 14.7102H4.52557C4.54072 14.9943 4.63352 15.2443 4.80398 15.4602C4.97822 15.6723 5.20928 15.8371 5.49716 15.9545C5.78504 16.072 6.1089 16.1307 6.46875 16.1307C6.84375 16.1307 7.17519 16.0644 7.46307 15.9318C7.75095 15.7992 7.97633 15.6155 8.1392 15.3807C8.30208 15.1458 8.38352 14.875 8.38352 14.5682C8.38352 14.2576 8.2964 13.983 8.12216 13.7443C7.9517 13.5019 7.70549 13.3125 7.38352 13.1761C7.06534 13.0398 6.68655 12.9716 6.24716 12.9716H5.16193V11.1648H6.24716C6.61837 11.1648 6.94602 11.1004 7.23011 10.9716C7.51799 10.8428 7.74148 10.6648 7.90057 10.4375C8.05966 10.2064 8.1392 9.9375 8.1392 9.63068C8.1392 9.33902 8.06913 9.08333 7.92898 8.86364C7.79261 8.64015 7.59943 8.46591 7.34943 8.34091C7.10322 8.21591 6.81534 8.15341 6.4858 8.15341C6.15246 8.15341 5.84754 8.21402 5.57102 8.33523C5.29451 8.45265 5.07292 8.62121 4.90625 8.84091C4.73958 9.06061 4.65057 9.31818 4.6392 9.61364H2.28125C2.29261 8.94318 2.4839 8.35227 2.85511 7.84091C3.22633 7.32955 3.72633 6.92992 4.35511 6.64205C4.98769 6.35038 5.7017 6.20455 6.49716 6.20455C7.30019 6.20455 8.00284 6.35038 8.60511 6.64205C9.20739 6.93371 9.67519 7.32765 10.0085 7.82386C10.3456 8.31629 10.5123 8.86932 10.5085 9.48295C10.5123 10.1345 10.3097 10.678 9.90057 11.1136C9.49527 11.5492 8.96686 11.8258 8.31534 11.9432V12.0341C9.1714 12.1439 9.82292 12.4413 10.2699 12.9261C10.7206 13.4072 10.9441 14.0095 10.9403 14.733C10.9441 15.3958 10.7528 15.9848 10.3665 16.5C9.9839 17.0152 9.45549 17.4205 8.78125 17.7159C8.10701 18.0114 7.33428 18.1591 6.46307 18.1591ZM17.2713 18.2557C16.294 18.2519 15.4531 18.0114 14.7486 17.5341C14.0478 17.0568 13.508 16.3655 13.1293 15.4602C12.7543 14.5549 12.5687 13.4659 12.5724 12.1932C12.5724 10.9242 12.7599 9.8428 13.1349 8.94886C13.5137 8.05492 14.0535 7.375 14.7543 6.90909C15.4588 6.43939 16.2978 6.20455 17.2713 6.20455C18.2448 6.20455 19.0819 6.43939 19.7827 6.90909C20.4872 7.37879 21.0289 8.06061 21.4077 8.95455C21.7865 9.8447 21.974 10.9242 21.9702 12.1932C21.9702 13.4697 21.7808 14.5606 21.402 15.4659C21.027 16.3712 20.4891 17.0625 19.7884 17.5398C19.0876 18.017 18.2486 18.2557 17.2713 18.2557ZM17.2713 16.2159C17.938 16.2159 18.4702 15.8807 18.8679 15.2102C19.2656 14.5398 19.4626 13.5341 19.4588 12.1932C19.4588 11.3106 19.3679 10.5758 19.1861 9.98864C19.008 9.40151 18.7543 8.96023 18.4247 8.66477C18.099 8.36932 17.7145 8.22159 17.2713 8.22159C16.6084 8.22159 16.0781 8.55303 15.6804 9.21591C15.2827 9.87879 15.0819 10.8712 15.0781 12.1932C15.0781 13.0871 15.1671 13.8333 15.3452 14.4318C15.527 15.0265 15.7827 15.4735 16.1122 15.7727C16.4418 16.0682 16.8281 16.2159 17.2713 16.2159Z" fill="#252525"/>
</svg>
