<svg width="16" height="15" viewBox="0 0 16 15" fill="none" xmlns="http://www.w3.org/2000/svg">
<path d="M9.60714 9.37732L10.1429 10.5305C10.1429 10.5305 12.5536 11.0424 12.5536 12.2602C12.5536 13.1251 11.4821 13.1251 11.4821 13.1251H8.625L7.21875 12.3438" stroke="#3E86F5" stroke-linecap="round" stroke-linejoin="round"/>
<path d="M6.39272 9.37732L5.857 10.5305C5.857 10.5305 3.44629 11.0424 3.44629 12.2602C3.44629 13.1251 4.51772 13.1251 4.51772 13.1251H5.81236L7.21861 12.3438L8.93736 11.2501" stroke="#3E86F5" stroke-linecap="round" stroke-linejoin="round"/>
<path d="M2.375 9.95383C2.375 9.95383 3.71429 9.66554 4.51786 9.37725C5.32143 5.34122 7.73214 5.6295 8 5.6295C8.26786 5.6295 10.6786 5.34122 11.4821 9.37725C12.2857 9.66554 13.625 9.95383 13.625 9.95383" stroke="#3E86F5" stroke-linecap="round" stroke-linejoin="round"/>
<path d="M8 4.375C8.69036 4.375 9.25 3.81536 9.25 3.125C9.25 2.43464 8.69036 1.875 8 1.875C7.30964 1.875 6.75 2.43464 6.75 3.125C6.75 3.81536 7.30964 4.375 8 4.375Z" stroke="#3E86F5" stroke-linecap="round" stroke-linejoin="round"/>
</svg>
